<svg fill="none" xmlns="http://www.w3.org/2000/svg" viewBox="0 0 216 48"><path d="M28.86 5c-2.58.04-4.5 1.14-4.5 1.14l-8.9 5.15S11 13.86 11 19v10.29s0 5.14 4.45 7.71l8.91 5.14s4.46 2.57 8.91 0L42.18 37c4.46-2.57 4.46-7.71 4.46-7.71V19c0-5.14-4.46-7.71-4.46-7.71l-8.9-5.15A8.49 8.49 0 0 0 28.85 5Zm-.06 7c1.29.02 2.25.57 2.25.57l6.68 3.86s2.23 1.28 2.23 3.86V28c0 2.57-2.23 3.86-2.23 3.86l-6.68 3.85c-2.23 1.29-4.46 0-4.46 0l-6.68-3.85s-2.23-1.29-2.23-3.86v-7.71a4.74 4.74 0 0 1 2.23-3.86l6.68-3.86a4.24 4.24 0 0 1 2.2-.57Z" fill="#98A4AE"/><path d="m22.14 20.29 6.68 3.85 6.68-3.85V28l-6.68 3.86L22.14 28v-7.71Z" fill="#98A4AE"/><path d="m132.23 11.96-3.93.89v3.8h-3.06v3.3h3.06v7.41c0 1.45.42 2.56 1.26 3.32.86.75 2.12 1.12 3.78 1.12.42 0 .93-.05 1.52-.14.6-.08 1.1-.18 1.52-.32v-3.2c-.38.13-.74.22-1.06.28-.33.04-.67.06-1.03.06-.76 0-1.3-.14-1.6-.43-.31-.29-.46-.78-.46-1.49v-6.61h4.23v-3.3h-4.23v-4.69Zm-9.94 4.35c-.82 0-1.57.18-2.26.52-.67.32-1.24.81-1.72 1.46v-1.63h-3.92v14.91h3.92v-9.65a3.95 3.95 0 0 1 3.61-2.23c.36 0 .72.04 1.06.12.34.05.66.15.94.28v-3.43c-.19-.12-.42-.2-.68-.23-.25-.06-.57-.1-.95-.12Zm-41.91.06a5.88 5.88 0 0 0-3.9 1.4v-1.11h-3.92v14.91h3.92V21.1c.35-.43.75-.77 1.2-1 .46-.23.99-.34 1.58-.34.86 0 1.54.28 2.03.86.52.57.78 1.32.78 2.26v8.7h3.92V22.3c0-.2-.01-.38-.03-.55l-.06-.51a3.5 3.5 0 0 1 2.86-1.5c.86 0 1.54.3 2.04.87.51.57.77 1.32.77 2.26v8.7h3.92V22.3c0-1.74-.53-3.16-1.6-4.27a5.44 5.44 0 0 0-4.1-1.66c-1 0-1.93.2-2.77.57-.84.39-1.56.94-2.15 1.66a5.46 5.46 0 0 0-4.5-2.23Zm24.68 0c-1.07 0-2.16.13-3.27.4-1.09.27-2.21.67-3.38 1.2l1.44 2.9c.93-.42 1.76-.73 2.49-.92a7.64 7.64 0 0 1 2.06-.32c1.03 0 1.81.22 2.34.66.54.44.8 1.09.8 1.95v1.06a11.81 11.81 0 0 0-3.63-.57c-1.9 0-3.4.4-4.5 1.2a3.9 3.9 0 0 0-1.63 3.32c0 1.35.51 2.46 1.52 3.32a5.94 5.94 0 0 0 3.92 1.26c.86 0 1.64-.1 2.32-.32.7-.2 1.38-.53 2-.97v1.03h3.87V21.9c0-1.76-.56-3.11-1.69-4.07-1.1-.97-2.66-1.46-4.66-1.46Zm40.2.03a7.46 7.46 0 0 0-5.47 2.26 7.6 7.6 0 0 0-2.2 5.47c0 1.09.2 2.1.6 3.06.41.94.97 1.75 1.68 2.43a8.2 8.2 0 0 0 5.73 2.24c1.18 0 2.25-.17 3.2-.52a9.55 9.55 0 0 0 2.84-1.63l-2.58-2.35c-.4.38-.89.68-1.46.89-.57.21-1.18.32-1.83.32a4.36 4.36 0 0 1-2.7-.86 4.18 4.18 0 0 1-1.54-2.26h11.11V24.4a8.62 8.62 0 0 0-2.12-5.72 6.9 6.9 0 0 0-2.35-1.66 6.8 6.8 0 0 0-2.92-.63Zm32.12 0a7.44 7.44 0 0 0-5.47 2.26 7.6 7.6 0 0 0-2.2 5.47c0 1.09.2 2.1.6 3.06.42.94.98 1.75 1.69 2.43a8.2 8.2 0 0 0 5.72 2.24c1.19 0 2.25-.17 3.2-.52a9.54 9.54 0 0 0 2.84-1.63l-2.57-2.35c-.4.38-.9.68-1.47.89-.57.21-1.18.32-1.83.32a4.36 4.36 0 0 1-2.69-.86 4.19 4.19 0 0 1-1.54-2.26h11.1V24.4a8.64 8.64 0 0 0-2.11-5.72 6.9 6.9 0 0 0-2.35-1.66 6.8 6.8 0 0 0-2.92-.63Zm-113.5.03c-1.89 0-3.4.43-4.52 1.29a4.1 4.1 0 0 0-1.69 3.43c0 1.2.38 2.17 1.15 2.9.78.72 1.9 1.2 3.38 1.42l2.86.43c.65.1 1.12.26 1.4.49.3.23.46.53.46.92 0 .47-.27.85-.8 1.14-.52.29-1.21.43-2.1.43-.77 0-1.56-.13-2.34-.4-.78-.29-1.61-.72-2.5-1.29l-1.94 2.6a9.1 9.1 0 0 0 3.04 1.55c1.18.35 2.45.52 3.8.52.94 0 1.8-.13 2.61-.38.8-.24 1.49-.59 2.06-1.03a4.92 4.92 0 0 0 1.35-1.54c.34-.61.51-1.27.51-1.98a3.7 3.7 0 0 0-1.2-2.83 5.97 5.97 0 0 0-3.35-1.43l-2.86-.43a3.98 3.98 0 0 1-1.58-.46c-.3-.23-.46-.54-.46-.94 0-.44.21-.8.63-1.06.44-.27 1.02-.4 1.72-.4.77 0 1.52.12 2.26.37.75.23 1.53.58 2.35 1.06l1.9-2.52a11.18 11.18 0 0 0-6.14-1.86Zm89.05.23 5.8 15.05-.22.55a3.42 3.42 0 0 1-1.17 1.51c-.48.35-1.07.52-1.78.52a8.77 8.77 0 0 1-1.37-.11v3.37a8.59 8.59 0 0 0 1.75.17c1.62 0 2.93-.38 3.94-1.14 1.02-.76 1.9-2.04 2.67-3.84l6.87-16.08h-4.24l-4.24 10.16-3.69-10.16h-4.32Zm39.2.96c-.4 0-.74.14-1.03.43-.3.29-.44.63-.44 1.04 0 .4.15.74.44 1.03.29.29.63.43 1.03.43s.75-.14 1.04-.43c.29-.29.43-.63.43-1.03s-.14-.75-.43-1.04a1.41 1.41 0 0 0-1.04-.43Zm13.19.17-2.58.56v4.01a4.51 4.51 0 0 0-1.28-.56 5.1 5.1 0 0 0-5 1.24 5.04 5.04 0 0 0-1.46 3.58 5.04 5.04 0 0 0 5 5.05 4.24 4.24 0 0 0 2.79-.94v.8h2.53V17.8Zm-60.15 1.84c.86 0 1.61.29 2.26.86a4.2 4.2 0 0 1 1.37 2.15h-7.3c.25-.92.7-1.64 1.35-2.18a3.46 3.46 0 0 1 2.32-.83Zm32.12 0c.86 0 1.62.29 2.26.86a4.2 4.2 0 0 1 1.38 2.15h-7.3c.25-.92.7-1.64 1.34-2.18a3.46 3.46 0 0 1 2.32-.83Zm13.56 2.1v9.8h2.58v-9.8h-2.58Zm9.55 2.04c.47 0 .9.09 1.3.25.42.16.76.39 1.04.68v3.82c-.3.3-.64.53-1.04.7-.39.16-.82.24-1.3.24-.8 0-1.48-.27-2.03-.83a2.74 2.74 0 0 1-.83-2.01 2.79 2.79 0 0 1 2.86-2.84Zm-96 1.53a8.95 8.95 0 0 1 3.15.55v2.23a5.83 5.83 0 0 1-3.3.94c-.82 0-1.47-.16-1.97-.48a1.6 1.6 0 0 1-.75-1.38c0-.57.25-1.02.75-1.34a3.78 3.78 0 0 1 2.12-.52Zm83.16 3.35c-.42 0-.78.15-1.08.45-.3.3-.45.67-.45 1.1 0 .41.15.77.45 1.07.3.3.66.45 1.08.45.42 0 .79-.15 1.09-.45.3-.3.45-.66.45-1.07 0-.43-.15-.8-.45-1.1a1.5 1.5 0 0 0-1.1-.45Z" fill="#394457"/></svg>
